<?xml version="1.0" encoding="utf-8"?>
<!-- Generator: Adobe Illustrator 21.0.0, SVG Export Plug-In . SVG Version: 6.00 Build 0)  -->
<svg version="1.1" id="Layer_1" xmlns="http://www.w3.org/2000/svg" xmlns:xlink="http://www.w3.org/1999/xlink" x="0px" y="0px"
	 viewBox="0 0 167.4 63.2" style="enable-background:new 0 0 167.4 63.2;" xml:space="preserve">
<style type="text/css">
	.st0{fill:#0080B9;}
	.st1{fill:#231F20;}
	.st2{fill:#ED1C24;}
</style>
<g id="surface1">
	<path class="st0" d="M91.1,50.3h75.4v-1.4l-75.4-2.2V50.3z"/>
	<path class="st1" d="M87.3,28.3l-0.1-1.4l-4,0l-0.9,5.5l4.4-0.7c-0.1,1.1-0.6,0.9-1.8,1.1l-2.6,0.7l-0.2,5.7
		c2.2-0.3,3.4-0.9,4.3-0.8l0.3,0.1c-0.1,0.9,0.3,0.5-2,1.1c-0.8,0.2-1.7,0.4-2.4,0.6l0.5,5.1l3.5-0.6c0.9,0-0.8-0.1,0.3,0l0.2,0.1
		c0,0.9-0.5,0.8-1.6,1c-0.7,0.1-1.5,0.3-2.2,0.4c0.2,1.2,0.8,4.3,1.3,5.2l4.1-0.3c0.9,0,0.4-0.2,0.9,0.5c-0.8,0.5-3.6,0.5-4.7,0.7
		c0.4,1.3,2.1,5.8,2.9,6.5c0.9-0.4,1.9-0.7,2.9-1.1c0.5-0.2,1-0.4,1.5-0.6c0.9-0.4,0.9-0.6,1.6-0.1c-0.2,0.6,0,0.3-0.5,0.6l-5.1,2
		c0.9,1.9,3.3,4.1,5.9,4.8c8.5,2.3,17.9-11.6,18-13.8h-5.2c-1.4,1.9-3.4,4.6-6.8,4.8c-3.4,0.2-5.5-2.8-6.6-5
		c-6.3-13.2-0.3-36,9.5-36.4c1.7-0.1,3.3,1,4,1.7c2.7,3.4,2.3,4.9,3.5,7.9h4.9c0.1-3.3-2.7-9.6-4.2-11.8c-2.1-3.1-5.7-6.2-11.3-3.7
		C92.6,11.2,88,21.8,87.3,28.3"/>
	<path class="st1" d="M85.2,63.4c-0.2-0.4,0-0.1-0.3-0.4c-1.6-2-6-3.7-8.2-11.8c-1.5-5.3-2-12.6-1.5-18.4
		c1.1-13.3,5.9-21.5,13.4-27.4c-0.1,0-0.4-0.2-1,0c-0.4,0.1-0.6,0.3-0.9,0.4c-3.3,2.3-7.1,6.7-9,10.2c-5.5,9.9-5.9,25.1-2.8,35.8
		c1.2,4,3.4,7.2,6.4,9.7C82.6,62.5,83,63.2,85.2,63.4"/>
	<path class="st1" d="M78.2,23.7c1.9-1.1,3.8-2.3,5.6-3.6c1.4-1,1.1-0.7,2-2.6c0.5-1,1.1-2.1,1.5-3c-0.5,0.1-6,2.5-6.4,2.8
		c-0.8,0.5-1.2,2.1-1.5,3C78.9,21.4,78.4,22.6,78.2,23.7"/>
	<path class="st1" d="M77.8,49.8c0.5,2.1,1.1,3.9,1.9,5.6c0.6-0.4,3.3-3,3.6-3.6c0.5-0.7-0.2-1.8-0.4-2.6c-0.2-0.8-0.3-2.1-0.7-2.8
		c-0.7,0.4-1.5,1.1-2.2,1.6C79.4,48.6,78.3,49.3,77.8,49.8"/>
	<path class="st1" d="M80.3,56.4c0.9,1.7,3.3,3.9,4.7,4.8c0.7-0.6,1.2-1.3,1.7-2.1l-2.7-6.6C83.5,52.8,80.6,55.8,80.3,56.4"/>
	<path class="st1" d="M81,16.2c0.4-0.1,6.1-2.3,6.6-2.6c0.6-0.4,1.5-1.8,2-2.6l2-2.6c-1.2,0.2-2.5,0.7-3.7,1.1
		C83.7,10.7,84.3,11.5,81,16.2"/>
	<path class="st1" d="M76.9,29.9c0.9-0.3,4.1-2.6,5-3.3c1.1-0.7,0.9-1.3,1.3-2.7c0.3-1,0.8-2.1,0.9-3.1l-5.1,3.2
		c-1.2,0.8-1.3,0.7-1.7,2.4C77.3,27.6,77.1,28.8,76.9,29.9"/>
	<path class="st1" d="M76.4,37.4v0.4l0.2,4.4c0.9-0.3,4.2-2.3,4.9-2.8l0.1-5.5C81,34.1,76.8,36.9,76.4,37.4"/>
	<path class="st1" d="M76.8,43.3l0.8,5.5l4.1-2.9c0.9-0.7,0.1-2.9-0.1-5.5L76.8,43.3z"/>
	<path class="st1" d="M76.4,36.1c0.6-0.2,1.7-1.1,2.3-1.5c0.9-0.6,1.4-0.9,2.2-1.5c0.5-0.4,0.7-0.4,0.8-1l0.7-4.7
		c-0.7,0.3-1.6,1-2.3,1.4c-3.4,2.1-3.4,2-3.5,3.9C76.5,33.8,76.5,35,76.4,36.1"/>
	<path class="st1" d="M71.7,42c-0.3-5.6,0.6-3.7-3.4-8.1l-0.5-0.6c-0.3-0.2,0-0.1-0.4-0.3c-0.1,3.4-0.8,4.5,0.6,5.8
		C68.8,39.6,70.8,41.6,71.7,42"/>
	<path class="st1" d="M71.4,36.3c0.1-0.9,0.1-1.9,0.2-2.8c0.2-2.8,0.4-1.8-1.6-4.5c-0.3-0.5-1-1.5-1.5-1.9c-0.4,0.6-0.5,1.8-0.7,2.7
		C67.4,32.6,67.4,32.2,71.4,36.3"/>
	<path class="st1" d="M74.1,54c-1.6-4.2,0.4-4.5-6.2-8.6c0.3,1.7,0.6,4.6,1.8,5.5L74.1,54z"/>
	<path class="st1" d="M83.5,26.1l3.9-0.1l1.1-5.4l-3.1-0.5C84.7,21.4,83.7,24.7,83.5,26.1"/>
	<path class="st1" d="M72.4,47.7c-0.1-1-0.3-1.9-0.4-2.8c-0.4-2.8-0.3-1.2-2.9-3.9c-0.7-0.7-1.1-1.2-1.9-1.6c0,1,0.1,2,0.2,3
		c0.1,1.5-0.1,1.8,1,2.5C69.7,45.7,71.1,46.9,72.4,47.7"/>
	<path class="st1" d="M72,30c0.1-1,0.9-4.4,0.8-5c-0.1-0.7-1.6-3.7-2-4.2c-0.5,0.6-0.8,1.6-1.1,2.4c-1,2.8-1.2,2.4,0.7,4.8
		C70.9,28.7,71.4,29.7,72,30"/>
	<path class="st1" d="M88.8,13.2c0.6,0.4,2.1,0.4,3,0.5l4.3-4.9c-2.4-0.3-3-1.1-3.9-0.1L88.8,13.2z"/>
	<path class="st0" d="M9.3,50.3l55.8,0l-1.3-3.5H9.3V50.3z"/>
	<path class="st1" d="M63.6,32.7c-0.6,1.2-0.4,3.9-0.4,5.4l3.3-0.2l0.2-5.3L63.6,32.7z"/>
	<path class="st1" d="M85.7,19.3l3.1,0.6c0.5-2,2-3.8,2.4-5.4l-3.1-0.3C87.6,15,85.8,18.4,85.7,19.3"/>
	<path class="st1" d="M64.8,26.6c-0.6,1-1.2,3.9-1.1,5.2h3.1l1.1-5.2L64.8,26.6z"/>
	<path class="st1" d="M63.3,38.9c0.1,1.6,0.2,4.2,0.9,5.4l2.8-0.2l-0.5-5.4L63.3,38.9z"/>
	<path class="st1" d="M81.7,63.2l-0.9-1c-0.4-0.3-0.7-0.5-1.1-0.8c-1.4-1-5.9-3.5-7.3-3.7c0.5,0.6,0.9,1.4,1.3,2.2
		c0.6,0.9,0.8,1.4,1.9,1.8C77.2,62.3,79.7,63,81.7,63.2"/>
	<path class="st1" d="M67,20.6c-0.6,0.8-1.8,3.9-2,5.1l3.2-0.2l1.9-5.3L67,20.6z"/>
	<path class="st1" d="M73.1,24c0.2-0.4,1.2-3.6,1.3-4c0.1-1-0.5-3.6-0.7-4.6c-0.6,0.5-2.2,3.3-2.5,4.2C70.9,20.4,72.6,23.2,73.1,24"
		/>
	<path class="st1" d="M74.9,18.4c0.7-0.9,1.4-2.9,2.2-4.1c1.2-2,1.2-2.3,1.3-4.9c-0.5,0.2-0.1,0-0.5,0.3l-1.3,1.3
		C74,14.3,74,13.7,74.9,18.4"/>
	<path class="st1" d="M67.4,19.7l3.2-0.3c0.2-0.7,0.8-1.8,1.2-2.4c0.3-0.6,1.1-1.8,1.3-2.3l-2.5-0.1C69.7,15,67.7,18.6,67.4,19.7"/>
	<path class="st1" d="M71,13.7c3.5,0.3,2.5,0.1,4.8-2.4c0.5-0.6,2-2.1,2.3-2.7c-1.2-0.4-1.8-0.3-2.5,0.3
		C73.4,10.8,72.8,11.3,71,13.7"/>
	<path class="st1" d="M76.7,58.7c-0.6-1.1-2-3.2-2.9-3.9l-4.1-2.9l1.5,3.5c0.2,0.5,0.3,0.8,0.7,1.1C72.2,56.9,76.1,58.6,76.7,58.7z"
		/>
	<path class="st1" d="M93.8,7.4c5.1,1.4,2.5,0.3,6.6-0.9c1.3-0.4,1.4-0.2,2.3-0.4l0.3-0.1c-1-0.7-3.9-0.7-5.4-0.8
		C95.9,5.1,94.7,6.3,93.8,7.4"/>
	<path class="st1" d="M64.3,45.3c0.1,1.1,1.3,4.3,1.7,5.1l2.3,0c-0.3-1.2-0.7-2.4-0.9-3.7C67,44.4,67.1,45.1,64.3,45.3"/>
	<path class="st1" d="M86.7,9c1.4-0.2,5.8-1.3,6.8-2.3l1.7-1.5c-4.4-0.1-3.5-0.4-5.9,1.4C88.7,7,86.9,8.6,86.7,9"/>
	<path class="st1" d="M69.7,56.5c2.2,0,0.1-1.2-1.1-5.3l-2.2,0C66.8,52.3,69,55.8,69.7,56.5"/>
	<path class="st1" d="M84.6,5.7C84.7,5.8,84.5,5.6,84.6,5.7z M79.1,11.2c0.7-0.4,2.5-2.9,4-4.1c0.6-0.5,1.1-0.8,1.5-1.4
		c-2.1,0.2-2.8,0.6-3.9,1.6C79.1,8.7,79.4,7.8,79.1,11.2"/>
	<path class="st1" d="M85.7,61.7l1.5,1.3c0.9,0.6,0.8,0.6,2.4,0.7c-0.7-1.3-1.6-2.4-2.3-3.8C86.6,60.3,86.1,61.1,85.7,61.7"/>
	<path class="st1" d="M73,60.3c-0.2-0.5-0.6-1.2-0.9-1.7c-0.6-1-0.4-1.3-1.6-1.3c0.5,1,1.2,1.6,1.8,2.2C72.9,60.4,72.4,60,73,60.3z
		 M73,60.5C73,60.6,73,60.4,73,60.5c0.1-0.1,0.1-0.1,0.1-0.1C73.1,60.4,72.7,60.2,73,60.5"/>
	<path class="st1" d="M80.3,6.6C80.3,6.6,80.4,6.6,80.3,6.6c0.1,0,0.1,0,0.1,0C80.4,6.6,79.9,6.4,80.3,6.6z M77.8,7.5
		c0.8,0.1,1.6,0.4,2.3-0.5c0.3-0.4,0,0.1,0.2-0.4C79.3,6.7,78.4,7.1,77.8,7.5"/>
	<path class="st0" d="M9.3,45.5l51.5-0.8v-0.3L9.3,42.9V45.5z"/>
	<path class="st2" d="M119,26.4v-0.5h1.4v-9h-0.6c-0.7,0-1.3,0.2-1.7,0.6c-0.4,0.4-0.8,1.1-1.1,2.1h-0.4l0.1-3.2h10.3l0.1,3.2h-0.4
		c-0.3-1-0.7-1.7-1.1-2.1c-0.4-0.4-1-0.6-1.7-0.6h-0.6v9h1.4v0.5H119z M127.8,26.4v-0.5h1.4v-9h-1.4v-0.5h5.6v0.5h-1.4v9h1.4v0.5
		H127.8z M134.4,25.9h1.3v-9h-1.3v-0.5h6.2c1.3,0,2.3,0.2,2.9,0.6c0.7,0.4,1,0.9,1,1.6c0,0.7-0.3,1.3-1,1.7
		c-0.6,0.4-1.5,0.7-2.7,0.7v0.1c1.2,0.1,2.1,0.5,2.6,1c0.5,0.5,0.8,1.4,0.8,2.5c0,0.5,0.1,0.8,0.2,0.9c0.1,0.1,0.3,0.2,0.6,0.2
		c0.1,0,0.2,0,0.3,0c0.1,0,0.3-0.1,0.4-0.1l0.2,0.4c-0.4,0.1-0.7,0.3-1.1,0.3s-0.6,0.1-0.9,0.1c-0.5,0-0.9-0.1-1.3-0.2
		c-0.4-0.1-0.7-0.3-0.9-0.5c-0.4-0.4-0.7-1.2-0.7-2.4c0-0.2,0-0.3,0-0.4c0-0.7-0.2-1.2-0.5-1.4c-0.3-0.3-0.9-0.4-1.7-0.4h-0.3v4.6
		h1.4v0.5h-5.6V25.9z M138.6,20.8h1.4c0.6,0,1.1-0.1,1.3-0.4c0.2-0.2,0.3-0.7,0.3-1.5c0-1-0.1-1.5-0.3-1.7s-0.6-0.3-1.3-0.3h-1.4
		V20.8z M146.6,26.4v-0.5h1.3v-9h-1.2v-0.5h9.2l0,2.6h-0.6c-0.4-0.8-0.8-1.4-1.1-1.7c-0.4-0.3-1-0.4-1.7-0.4h-1.9V21
		c0,0,0.1,0,0.2,0c0.1,0,0.1,0,0.2,0c0.6,0,1.1-0.1,1.4-0.4c0.3-0.3,0.5-0.8,0.6-1.4h0.6v4.2h-0.6c-0.1-0.7-0.3-1.2-0.6-1.5
		c-0.3-0.3-0.8-0.4-1.5-0.4h-0.3v4.4h1.9c0.9,0,1.6-0.2,2.1-0.6c0.5-0.4,0.9-1.2,1.2-2.2h0.5l-0.1,3.3H146.6z M158.2,26.5v-2.9h0.6
		c0.3,0.8,0.7,1.5,1.3,1.9s1.2,0.6,2.1,0.6c0.7,0,1.3-0.2,1.8-0.5c0.5-0.3,0.7-0.8,0.7-1.3c0-0.3-0.1-0.5-0.2-0.7
		c-0.1-0.2-0.3-0.4-0.6-0.5c-0.3-0.2-0.9-0.4-1.8-0.6c-0.3-0.1-0.6-0.1-0.8-0.2c-1.1-0.2-1.9-0.6-2.3-1.1c-0.5-0.5-0.7-1.1-0.7-1.9
		c0-0.9,0.3-1.7,1-2.3s1.5-0.9,2.5-0.9c0.4,0,0.8,0.1,1.2,0.2c0.4,0.1,0.7,0.3,1,0.5l0.6-0.4h0.5l0.1,2.6h-0.6
		c-0.2-0.8-0.6-1.4-1.1-1.8c-0.5-0.4-1.1-0.6-1.9-0.6c-0.6,0-1.1,0.1-1.5,0.4c-0.4,0.3-0.6,0.6-0.6,1c0,0.6,0.7,1.1,2.2,1.4
		c0.2,0,0.4,0.1,0.5,0.1c1.4,0.3,2.4,0.7,2.9,1.2c0.6,0.5,0.8,1.3,0.8,2.3c0,1-0.4,1.8-1.1,2.5c-0.7,0.7-1.6,1-2.7,1
		c-0.6,0-1-0.1-1.5-0.2c-0.4-0.1-0.8-0.3-1.2-0.5l-0.8,0.6H158.2z M95.1,44.6v-2.9h0.6c0.3,0.8,0.7,1.5,1.3,1.9
		c0.6,0.4,1.2,0.6,2.1,0.6c0.7,0,1.3-0.2,1.8-0.5s0.7-0.8,0.7-1.3c0-0.3-0.1-0.5-0.2-0.7c-0.1-0.2-0.3-0.4-0.6-0.5
		c-0.3-0.2-0.9-0.4-1.8-0.6c-0.3-0.1-0.6-0.1-0.8-0.2c-1.1-0.2-1.9-0.6-2.3-1.1c-0.5-0.5-0.7-1.1-0.7-1.9c0-0.9,0.3-1.7,1-2.3
		c0.6-0.6,1.5-0.9,2.5-0.9c0.4,0,0.8,0.1,1.2,0.2s0.7,0.3,1,0.5l0.6-0.4h0.5l0.1,2.6h-0.6c-0.2-0.8-0.6-1.4-1.1-1.8
		c-0.5-0.4-1.1-0.6-1.9-0.6c-0.6,0-1.1,0.1-1.5,0.4s-0.6,0.6-0.6,1c0,0.6,0.7,1.1,2.2,1.4c0.2,0,0.3,0.1,0.5,0.1
		c1.4,0.3,2.4,0.7,2.9,1.2c0.6,0.5,0.8,1.3,0.8,2.3c0,1-0.4,1.8-1.1,2.5c-0.7,0.7-1.6,1-2.7,1c-0.6,0-1-0.1-1.4-0.2
		c-0.4-0.1-0.8-0.3-1.2-0.5l-0.8,0.6H95.1z M104.1,44.5V44h1.3v-9h-1.2v-0.5h9.2l0,2.6h-0.6c-0.4-0.8-0.8-1.4-1.1-1.7
		c-0.4-0.3-1-0.4-1.7-0.4h-1.9v4.1c0,0,0.1,0,0.2,0c0.1,0,0.1,0,0.2,0c0.6,0,1.1-0.1,1.4-0.4c0.3-0.3,0.5-0.8,0.6-1.4h0.6v4.2h-0.6
		c-0.1-0.7-0.3-1.2-0.6-1.5s-0.8-0.4-1.5-0.4h-0.3V44h1.9c0.9,0,1.6-0.2,2.1-0.6c0.5-0.4,0.9-1.2,1.2-2.2h0.5l-0.1,3.3H104.1z
		 M115.4,44h1.3v-9h-1.3v-0.5h6.2c1.3,0,2.3,0.2,2.9,0.6c0.7,0.4,1,0.9,1,1.6c0,0.7-0.3,1.3-1,1.7c-0.6,0.4-1.5,0.7-2.7,0.7v0.1
		c1.2,0.1,2.1,0.5,2.6,1c0.5,0.5,0.8,1.4,0.8,2.5c0,0.5,0.1,0.8,0.2,0.9s0.3,0.2,0.6,0.2c0.1,0,0.2,0,0.3,0c0.1,0,0.3-0.1,0.4-0.1
		l0.2,0.4c-0.4,0.1-0.7,0.3-1.1,0.3c-0.3,0.1-0.6,0.1-0.9,0.1c-0.5,0-0.9-0.1-1.3-0.2s-0.7-0.3-0.9-0.5c-0.4-0.4-0.7-1.2-0.7-2.4
		c0-0.2,0-0.3,0-0.4c0-0.7-0.2-1.2-0.5-1.4c-0.3-0.3-0.9-0.4-1.7-0.4h-0.3V44h1.4v0.5h-5.6V44z M119.5,38.9h1.4
		c0.6,0,1.1-0.1,1.3-0.4c0.2-0.2,0.3-0.7,0.3-1.5c0-1-0.1-1.5-0.3-1.7c-0.2-0.2-0.6-0.3-1.3-0.3h-1.4V38.9z M131.9,44.7l-4.5-9.7
		h-0.9v-0.5h5.2V35h-1.3l2.8,6.1l2-5.1c0.1-0.2,0.1-0.3,0.1-0.4c0-0.1,0-0.2,0-0.3c0-0.1-0.1-0.2-0.2-0.3c-0.1,0-0.3-0.1-0.7-0.1
		H134v-0.5h3.5V35h-0.5c-0.3,0-0.5,0.1-0.7,0.2c-0.2,0.1-0.3,0.4-0.5,0.9l-3.4,8.6H131.9z M138.1,44.5V44h1.4v-9h-1.4v-0.5h5.6V35
		h-1.4v9h1.4v0.5H138.1z M154.4,41.5v3h-0.6l-0.8-0.6c-0.3,0.3-0.7,0.5-1.2,0.6c-0.4,0.1-0.9,0.2-1.5,0.2c-0.8,0-1.5-0.1-2.1-0.4
		c-0.6-0.3-1.2-0.7-1.8-1.2c-0.5-0.5-0.9-1.1-1.2-1.7c-0.3-0.6-0.4-1.2-0.4-1.9c0-0.7,0.1-1.3,0.4-1.9c0.3-0.6,0.7-1.2,1.2-1.7
		s1.1-0.9,1.8-1.2c0.6-0.3,1.4-0.4,2.1-0.4c0.5,0,0.9,0.1,1.3,0.2c0.4,0.1,0.8,0.3,1.2,0.5l0.6-0.5h0.6l0.1,2.8h-0.6
		c-0.4-0.9-0.8-1.5-1.3-1.9s-1.1-0.6-1.9-0.6c-0.9,0-1.4,0.3-1.7,0.8c-0.3,0.5-0.5,1.8-0.5,3.8c0,1.1,0,1.9,0,2.4
		c0,0.5,0.1,0.9,0.1,1.1c0.1,0.5,0.4,0.9,0.7,1.1c0.3,0.2,0.8,0.3,1.3,0.3c0.8,0,1.5-0.3,2.1-0.8c0.6-0.5,1-1.2,1.2-2H154.4z
		 M155.9,44.5V44h1.3v-9h-1.2v-0.5h9.2l0,2.6h-0.6c-0.4-0.8-0.8-1.4-1.1-1.7c-0.4-0.3-1-0.4-1.7-0.4h-1.9v4.1c0,0,0.1,0,0.2,0
		c0.1,0,0.1,0,0.2,0c0.6,0,1.1-0.1,1.4-0.4s0.5-0.8,0.6-1.4h0.6v4.2h-0.6c-0.1-0.7-0.3-1.2-0.6-1.5c-0.3-0.3-0.8-0.4-1.5-0.4h-0.3
		V44h1.9c0.9,0,1.6-0.2,2.1-0.6c0.5-0.4,0.9-1.2,1.2-2.2h0.5l-0.1,3.3H155.9z"/>
	<path class="st2" d="M30,10c2.9,0.6,5.9,0.6,8.8,0l2.7-8.4l-1.8,0.9l-0.2,0.7c0,0-0.8,0-1.1,0.3s-0.4,1.4,0.1,1.5
		c0.5,0.2,1,0,0.9,0c-0.1,0-1.2,1.8-1.2,1.8s-0.7-0.2-0.8-0.5c-0.1-0.3,0.2-0.5,0.5-0.5c0.3,0,0.5-0.4,0.1-1
		c-0.4-0.5-0.9-1.1-0.9-1.1s-0.6,0.5-0.9,0.8c-0.3,0.3-0.6,0.8-0.2,1.1c0.4,0.3,0.3,0.6,0.1,0.8s-0.4,0.3-0.6,0
		c-0.2-0.3-0.8-1.4-0.8-2.1c0-0.7,0.3-0.7,0.6-0.5c0.3,0.2,0.9,0,1-0.7C36.5,2.5,36,2,35.6,2.1c-0.4,0.1-0.1-0.3,0-0.5
		c0.1-0.2,0.2-0.3-0.1-0.6c-0.3-0.3-1-1-1-1s-1.1,1-1.2,1.1c-0.1,0.2-0.2,0.6,0.1,0.7c0.2,0.1-0.1,0.4-0.4,0.4
		c-0.3,0-0.7,0.2-0.6,0.6c0,0.4,0.1,1.1,0.7,1.2C33.6,4,34,3.9,33.8,4.8c-0.2,1-0.4,1.9-1.1,1.9C32,6.7,32,6,32.4,5.9
		s0.5-0.6,0.1-1.1s-1-0.8-1.1-0.9c-0.1-0.1-0.4,0.4-0.7,0.7c-0.3,0.2-0.6,0.8-0.2,1.1c0.4,0.3,1,0.5,0.6,0.9
		c-0.4,0.4-0.9-0.1-1.5-0.8c-0.6-0.6-0.5-1,0.1-0.7c0.6,0.3,1-0.7,0.8-1.1c-0.3-0.5-0.5-0.8-0.9-0.7S29,2.7,28.8,2.4
		c-0.2-0.3-1.7-0.9-1.7-0.9L30,10z"/>
	<path class="st2" d="M16.8,37.3l-8.8-23H6.2v-1.1h10.3v1.1H14l5.6,14.6l4-12.2c0.1-0.4,0.2-0.7,0.3-0.9c0.1-0.2,0.1-0.4,0.1-0.6
		c0-0.3-0.1-0.5-0.3-0.7c-0.2-0.1-0.7-0.2-1.4-0.2h-1.3v-1.1h7v1.1h-0.9c-0.6,0-1,0.2-1.3,0.5c-0.3,0.3-0.7,1-1,2.1l-6.8,20.4H16.8z
		 M29,36.8v-1.2h2.7V14.3H29v-1.1h11v1.1h-2.7v21.3H40v1.2H29z M42,35.6h2.7V14.3H42v-1.1h11.3c3.1,0,5.4,0.5,6.9,1.5
		c1.5,1,2.2,2.5,2.2,4.5c0,2.1-0.8,3.7-2.3,4.8c-1.5,1.1-3.9,1.6-7,1.6h-2.9v10h3.1v1.2H42V35.6z M50.2,14.3v10.4h3.1
		c1.2,0,2.1-0.3,2.5-0.9c0.4-0.6,0.6-2.1,0.6-4.5c0-2.2-0.2-3.6-0.6-4.2c-0.4-0.6-1.3-0.8-2.6-0.8H50.2z"/>
	<path class="st0" d="M9.3,41.6l40.4-0.9l0-0.4L9.3,39V41.6z"/>
</g>
</svg>
